<svg xmlns="http://www.w3.org/2000/svg" version="1.1" xmlns:xlink="http://www.w3.org/1999/xlink" xmlns:svgjs="http://svgjs.dev/svgjs" width="1500" height="606" viewBox="0 0 1500 606"><g transform="matrix(1,0,0,1,-0.9090909090909918,14.458517858173934)"><svg viewBox="0 0 396 160" data-background-color="#121212" preserveAspectRatio="xMidYMid meet" height="606" width="1500" xmlns="http://www.w3.org/2000/svg" xmlns:xlink="http://www.w3.org/1999/xlink"><g id="tight-bounds" transform="matrix(1,0,0,1,0.2400000000000091,0.3389300481815809)"><svg viewBox="0 0 395.52 159.32213990363684" height="159.32213990363684" width="395.52"><g><svg viewBox="0 0 751.2464061296554 302.61474772323356" height="159.32213990363684" width="395.52"><g><rect width="8.76992352684104" height="159.4663381477431" x="418.4779149917305" y="71.57420478774523" fill="#64dd17" opacity="1" stroke-width="0" stroke="transparent" fill-opacity="1" class="rect-yte-0" data-fill-palette-color="primary" rx="1%" id="yte-0" data-palette-color="#64dd17"></rect></g><g transform="matrix(1,0,0,1,0,71.97088722094857)"><svg viewBox="0 0 395.52 158.67297328133643" height="158.67297328133643" width="395.52"><g id="textblocktransform"><svg viewBox="0 0 395.52 158.67297328133643" height="158.67297328133643" width="395.52" id="textblock"><g><svg viewBox="0 0 395.52 97.24798366513527" height="97.24798366513527" width="395.52"><g transform="matrix(1,0,0,1,0,0)"><svg width="395.52" viewBox="-0.03 -35.35 146.92 36.13" height="97.24798366513527" data-palette-color="#64dd17"><path d="M23.88-34.58L30.03-34.58 25.6 0 17.98 0 15-25.15 11.85 0 4.05 0-0.03-34.58 6.6-34.58 8.55-6.3 11.83-30.58 18.35-30.58 21.4-6.3 23.88-34.58ZM52.62 0L50.52-7.88 39.3-7.88 37.17 0 29.95 0 40.72-34.58 49.3-34.58 60.1 0 52.62 0ZM44.9-29.38L40.55-13.1 49.25-13.1 44.9-29.38ZM87.7-24.33L87.7-24.33Q87.7-21.83 86.71-19.95 85.72-18.07 84.05-16.81 82.37-15.55 80.3-14.83L80.3-14.83 89.72 0 81.72 0 73.62-13.73 70.57-13.73 70.57 0 63.57 0 63.57-34.58 73.82-34.58Q80.7-34.58 84.2-32.04 87.7-29.5 87.7-24.33ZM80.42-24.33L80.42-24.33Q80.42-27.08 78.82-28.31 77.22-29.55 74-29.55L74-29.55 70.57-29.55 70.57-18.65 74.22-18.65Q77.22-18.65 78.82-19.99 80.42-21.33 80.42-24.33ZM118.49-17.3L118.49-17.3Q118.49-11.88 116.97-7.81 115.44-3.75 112.44-1.49 109.44 0.78 104.99 0.78L104.99 0.78Q100.57 0.78 97.56-1.44 94.54-3.65 93.02-7.7 91.49-11.75 91.49-17.28L91.49-17.28Q91.49-22.7 93.02-26.76 94.54-30.83 97.56-33.09 100.57-35.35 104.99-35.35L104.99-35.35Q109.44-35.35 112.44-33.15 115.44-30.95 116.97-26.89 118.49-22.83 118.49-17.3ZM111.29-17.3L111.29-17.3Q111.29-23.85 109.83-26.98 108.37-30.1 104.99-30.1L104.99-30.1Q101.62-30.1 100.16-26.95 98.69-23.8 98.69-17.28L98.69-17.28Q98.69-10.73 100.19-7.61 101.69-4.5 104.99-4.5L104.99-4.5Q108.42-4.5 109.86-7.65 111.29-10.8 111.29-17.3ZM146.89 0L138.17 0 128.09-28.63Q128.22-27.68 128.39-26.16 128.56-24.65 128.74-22.75 128.92-20.85 129.03-18.71 129.14-16.57 129.14-14.38L129.14-14.38 129.14 0 123.09 0 123.09-34.58 131.97-34.58 141.89-6.03Q141.69-7.33 141.44-9.44 141.19-11.55 141.02-14.26 140.84-16.98 140.84-20.08L140.84-20.08 140.84-34.58 146.89-34.58 146.89 0Z" opacity="1" transform="matrix(1,0,0,1,0,0)" fill="#64dd17" class="wordmark-text-0" data-fill-palette-color="primary" id="text-0"></path></svg></g></svg></g><g transform="matrix(1,0,0,1,147.52896,120.20589865686574)"><svg viewBox="0 0 247.99103999999997 38.46707462447068" height="38.46707462447068" width="247.99103999999997"><g transform="matrix(1,0,0,1,0,0)"><svg width="247.99103999999997" viewBox="2.5 -34.25 224.33 34.8" height="38.46707462447068" data-palette-color="#76ff03"><path d="M7.35-34.25L21.85-34.25 21.15-31.8 9.9-31.8 8.1-18.95 17.9-18.95 17.5-16.55 7.75-16.55 5.75-2.45 17.7-2.45 17.3 0 2.5 0 7.35-34.25ZM34.9-14.45L23.85-14.45 24.2-16.85 35.2-16.85 34.9-14.45ZM51.45-26.7Q53.25-26.7 54.65-26.05 56.05-25.4 57.3-24L57.3-24 55.7-22.3Q54.7-23.3 53.72-23.8 52.75-24.3 51.4-24.3L51.4-24.3Q48.4-24.3 46.4-21.9 44.4-19.5 43.5-15.95 42.6-12.4 42.6-8.85L42.6-8.85Q42.6-5.35 43.85-3.65 45.1-1.95 47.35-1.95L47.35-1.95Q48.75-1.95 49.95-2.48 51.15-3 52.55-4L52.55-4 53.75-2.15Q50.6 0.55 47.15 0.55L47.15 0.55Q43.65 0.55 41.67-1.95 39.7-4.45 39.7-8.95L39.7-8.95Q39.7-13.1 40.97-17.2 42.25-21.3 44.9-24 47.55-26.7 51.45-26.7L51.45-26.7ZM66.49 0.55Q62.89 0.55 60.94-1.98 58.99-4.5 58.99-9L58.99-9Q58.99-13 60.22-17.07 61.44-21.15 64.09-23.93 66.74-26.7 70.69-26.7L70.69-26.7Q74.29-26.7 76.24-24.18 78.19-21.65 78.19-17.2L78.19-17.2Q78.19-13.2 76.97-9.1 75.74-5 73.12-2.23 70.49 0.55 66.49 0.55L66.49 0.55ZM66.59-1.85Q69.69-1.85 71.64-4.38 73.59-6.9 74.44-10.48 75.29-14.05 75.29-17.4L75.29-17.4Q75.29-20.85 74.09-22.6 72.89-24.35 70.59-24.35L70.59-24.35Q67.49-24.35 65.54-21.83 63.59-19.3 62.74-15.7 61.89-12.1 61.89-8.75L61.89-8.75Q61.89-1.85 66.59-1.85L66.59-1.85ZM107.49-26.7Q109.69-26.7 110.97-25.1 112.24-23.5 112.24-20.65L112.24-20.65Q112.24-19.75 112.09-18.75L112.09-18.75 109.39 0 106.59 0 109.19-18.65Q109.34-19.8 109.34-20.65L109.34-20.65Q109.34-24.3 106.89-24.3L106.89-24.3Q105.09-24.3 103.34-22.1 101.59-19.9 99.74-16.05L99.74-16.05 97.39 0 94.64 0 97.24-18.65Q97.39-19.8 97.39-20.65L97.39-20.65Q97.39-24.3 94.94-24.3L94.94-24.3Q93.09-24.3 91.34-22.05 89.59-19.8 87.74-15.85L87.74-15.85 85.49 0 82.69 0 86.39-26.15 88.79-26.15 88.14-20.1Q91.59-26.7 95.54-26.7L95.54-26.7Q97.69-26.7 98.97-25.08 100.24-23.45 100.24-20.5L100.24-20.5Q103.54-26.7 107.49-26.7L107.49-26.7ZM142.34-26.7Q144.54-26.7 145.81-25.1 147.09-23.5 147.09-20.65L147.09-20.65Q147.09-19.75 146.94-18.75L146.94-18.75 144.24 0 141.44 0 144.04-18.65Q144.19-19.8 144.19-20.65L144.19-20.65Q144.19-24.3 141.74-24.3L141.74-24.3Q139.94-24.3 138.19-22.1 136.44-19.9 134.59-16.05L134.59-16.05 132.24 0 129.49 0 132.09-18.65Q132.24-19.8 132.24-20.65L132.24-20.65Q132.24-24.3 129.79-24.3L129.79-24.3Q127.94-24.3 126.19-22.05 124.44-19.8 122.59-15.85L122.59-15.85 120.34 0 117.54 0 121.24-26.15 123.64-26.15 122.99-20.1Q126.44-26.7 130.39-26.7L130.39-26.7Q132.54-26.7 133.81-25.08 135.09-23.45 135.09-20.5L135.09-20.5Q138.39-26.7 142.34-26.7L142.34-26.7ZM170.59-20.65Q170.59-15.8 166.53-13.4 162.49-11 155.24-10.3L155.24-10.3Q155.19-9.85 155.19-8.95L155.19-8.95Q155.19-1.9 159.99-1.9L159.99-1.9Q161.59-1.9 163.01-2.53 164.44-3.15 166.09-4.4L166.09-4.4 167.34-2.55Q165.44-1 163.61-0.23 161.78 0.55 159.74 0.55L159.74 0.55Q156.19 0.55 154.24-1.93 152.28-4.4 152.28-8.9L152.28-8.9Q152.28-13.25 153.59-17.35 154.89-21.45 157.59-24.08 160.28-26.7 164.19-26.7L164.19-26.7Q167.24-26.7 168.91-25.03 170.59-23.35 170.59-20.65L170.59-20.65ZM163.99-24.35Q160.34-24.35 158.19-20.9 156.03-17.45 155.44-12.5L155.44-12.5Q161.69-13.1 164.74-15.03 167.78-16.95 167.78-20.6L167.78-20.6Q167.78-22.4 166.86-23.38 165.94-24.35 163.99-24.35L163.99-24.35ZM186.38-26.7Q187.23-26.7 188.38-26.35L188.38-26.35 187.53-23.7Q186.53-24 185.83-24L185.83-24Q183.58-24 181.96-21.73 180.33-19.45 178.83-14.95L178.83-14.95 176.73 0 173.93 0 177.63-26.15 180.08-26.15 179.38-20.3Q180.73-23.45 182.38-25.08 184.03-26.7 186.38-26.7L186.38-26.7ZM200.98-26.7Q202.78-26.7 204.18-26.05 205.58-25.4 206.83-24L206.83-24 205.23-22.3Q204.23-23.3 203.26-23.8 202.28-24.3 200.93-24.3L200.93-24.3Q197.93-24.3 195.93-21.9 193.93-19.5 193.03-15.95 192.13-12.4 192.13-8.85L192.13-8.85Q192.13-5.35 193.38-3.65 194.63-1.95 196.88-1.95L196.88-1.95Q198.28-1.95 199.48-2.48 200.68-3 202.08-4L202.08-4 203.28-2.15Q200.13 0.55 196.68 0.55L196.68 0.55Q193.18 0.55 191.21-1.95 189.23-4.45 189.23-8.95L189.23-8.95Q189.23-13.1 190.51-17.2 191.78-21.3 194.43-24 197.08-26.7 200.98-26.7L200.98-26.7ZM226.83-20.65Q226.83-15.8 222.78-13.4 218.73-11 211.48-10.3L211.48-10.3Q211.43-9.85 211.43-8.95L211.43-8.95Q211.43-1.9 216.23-1.9L216.23-1.9Q217.83-1.9 219.25-2.53 220.68-3.15 222.33-4.4L222.33-4.4 223.58-2.55Q221.68-1 219.85-0.23 218.03 0.55 215.98 0.55L215.98 0.55Q212.43 0.55 210.48-1.93 208.53-4.4 208.53-8.9L208.53-8.9Q208.53-13.25 209.83-17.35 211.13-21.45 213.83-24.08 216.53-26.7 220.43-26.7L220.43-26.7Q223.48-26.7 225.15-25.03 226.83-23.35 226.83-20.65L226.83-20.65ZM220.23-24.35Q216.58-24.35 214.43-20.9 212.28-17.45 211.68-12.5L211.68-12.5Q217.93-13.1 220.98-15.03 224.03-16.95 224.03-20.6L224.03-20.6Q224.03-22.4 223.1-23.38 222.18-24.35 220.23-24.35L220.23-24.35Z" opacity="1" transform="matrix(1,0,0,1,0,0)" fill="#76ff03" class="slogan-text-1" data-fill-palette-color="secondary" id="text-1"></path></svg></g></svg></g></svg></g></svg></g><g transform="matrix(1,0,0,1,450.205753510302,0)"><svg viewBox="0 0 301.0406526193534 302.61474772323356" height="302.61474772323356" width="301.0406526193534"><g><svg xmlns="http://www.w3.org/2000/svg" data-name="Layer 1" viewBox="1.75 1.499963112414123 96.5 97.00458360424997" x="0" y="0" height="302.61474772323356" width="301.0406526193534" class="icon-icon-0" data-fill-palette-color="accent" id="icon-0"><path d="M87.5 31.7H77.21V13.7A12.22 12.22 0 0 0 65 1.5H14A12.22 12.22 0 0 0 1.75 13.71V55A12.22 12.22 0 0 0 14 67.19H20.13V81.19A2.5 2.5 0 0 0 24.4 82.96L40.1 67.19H43.1V73.77A10.76 10.76 0 0 0 53.8 84.52H66.14L79.41 97.77A2.5 2.5 0 0 0 83.68 96V84.52H87.5A10.76 10.76 0 0 0 98.25 73.77V42.45A10.76 10.76 0 0 0 87.5 31.7M39.06 62.19A2.5 2.5 0 0 0 37.29 62.92L25.09 75.11V64.69A2.5 2.5 0 0 0 22.59 62.19H14A7.21 7.21 0 0 1 6.75 55V13.71A7.21 7.21 0 0 1 14 6.5H65A7.21 7.21 0 0 1 72.21 13.71V55A7.21 7.21 0 0 1 65 62.19ZM93.25 73.77A5.75 5.75 0 0 1 87.5 79.52H81.18A2.5 2.5 0 0 0 78.68 82.02V90.02L68.94 80.3A2.5 2.5 0 0 0 67.17 79.57H53.8A5.75 5.75 0 0 1 48 73.77V67.19H65A12.22 12.22 0 0 0 77.21 55V36.7H87.5A5.75 5.75 0 0 1 93.25 42.45Z" fill="#64dd17" data-fill-palette-color="accent"></path><path d="M53.72 19.4H31.34V18.4A6 6 0 0 0 25.34 12.4H23.38A2.5 2.5 0 0 0 23.38 17.4H25.33A1 1 0 0 1 26.33 18.4V39A7.21 7.21 0 0 0 33.54 46.21H51.85A2.5 2.5 0 0 0 51.85 41.21H33.54A2.21 2.21 0 0 1 31.34 39V36.65H50.75A5.47 5.47 0 0 0 56.22 31.18V21.9A2.5 2.5 0 0 0 53.72 19.4M51.22 31.19A0.47 0.47 0 0 1 50.75 31.66H31.34V24.4H51.22Z" fill="#64dd17" data-fill-palette-color="accent"></path><circle cx="34.69" cy="52.53" r="2.9" fill="#64dd17" data-fill-palette-color="accent"></circle><circle cx="48.03" cy="52.53" r="2.9" fill="#64dd17" data-fill-palette-color="accent"></circle></svg></g></svg></g></svg></g><defs></defs></svg><rect width="395.52" height="159.32213990363684" fill="none" stroke="none" visibility="hidden"></rect></g></svg></g></svg>